<svg xmlns="http://www.w3.org/2000/svg" width="156" height="223" viewBox="0 0 156 223" version="1.1"><path d="M 0 66.025 L 0 132.050 2.399 132.962 C 9.906 135.816, 9.812 147.045, 2.250 150.918 L 0 152.070 0 187.535 L 0 223 77.500 223 L 155 223 155 171.626 C 155 128.516, 154.759 119.568, 153.500 116 C 151.606 110.633, 151.597 99.298, 153.480 91.500 C 154.626 86.756, 154.936 76.554, 154.964 42.750 L 155 0 77.500 0 L 0 0 0 66.025 M 61.500 33.065 C 46.507 36.662, 31.373 46.344, 22.257 58.172 C 17.955 63.754, 12.867 72.776, 11.633 77.011 C 8.414 88.064, 7.835 91.553, 7.820 100 C 7.792 115.510, 13.059 131.466, 24.336 150.040 C 28.091 156.224, 28.017 157.151, 23.194 164.300 C 17.334 172.986, 16.729 178.843, 21.115 184.419 C 27.159 192.103, 36.339 191.608, 43.687 183.201 L 46.873 179.555 56.687 189.224 C 62.084 194.542, 68.637 200.552, 71.249 202.580 L 75.999 206.267 80.159 203.514 C 85.869 199.735, 106.246 179.231, 113.927 169.535 C 128.014 151.754, 136.805 136.471, 142.184 120.413 C 144.172 114.478, 144.488 111.591, 144.420 100 C 144.345 87.227, 144.166 86.055, 141.093 78.237 C 139.306 73.692, 136.672 67.842, 135.238 65.237 C 131.441 58.336, 117.677 44.978, 109.935 40.680 C 98.658 34.419, 92.091 32.715, 78 32.392 C 71.125 32.234, 63.700 32.537, 61.500 33.065 M 71.500 70.078 C 64.270 71.123, 59.471 73.483, 53.750 78.807 C 46.353 85.690, 44.020 91.371, 44.020 102.500 C 44.020 109.894, 44.446 112.417, 46.413 116.640 C 51.921 128.470, 62.555 135.341, 75.500 135.434 C 92.154 135.553, 104.972 125.199, 108.917 108.443 C 110.346 102.371, 108.399 91, 104.985 85.476 C 98.048 74.252, 84.794 68.157, 71.500 70.078" stroke="none" fill="#1c1d1d" fill-rule="evenodd"/><path d="M 155.168 42.500 C 154.982 75.958, 154.607 86.831, 153.480 91.500 C 151.597 99.298, 151.606 110.633, 153.500 116 C 154.748 119.538, 155.033 128.915, 155.199 171.876 L 155.398 223.500 155.949 183.500 C 156.252 161.500, 156.254 111.100, 155.954 71.500 C 155.492 10.605, 155.371 6.132, 155.168 42.500 M 61.500 33.065 C 46.507 36.662, 31.373 46.344, 22.257 58.172 C 17.955 63.754, 12.867 72.776, 11.633 77.011 C 8.414 88.064, 7.835 91.553, 7.820 100 C 7.792 115.510, 13.059 131.466, 24.336 150.040 C 28.091 156.224, 28.017 157.151, 23.194 164.300 C 17.334 172.986, 16.729 178.843, 21.115 184.419 C 27.159 192.103, 36.339 191.608, 43.687 183.201 L 46.873 179.555 56.687 189.224 C 62.084 194.542, 68.637 200.552, 71.249 202.580 L 75.999 206.267 80.159 203.514 C 85.869 199.735, 106.246 179.231, 113.927 169.535 C 128.014 151.754, 136.805 136.471, 142.184 120.413 C 144.172 114.478, 144.488 111.591, 144.420 100 C 144.345 87.227, 144.166 86.055, 141.093 78.237 C 139.306 73.692, 136.672 67.842, 135.238 65.237 C 131.441 58.336, 117.677 44.978, 109.935 40.680 C 98.658 34.419, 92.091 32.715, 78 32.392 C 71.125 32.234, 63.700 32.537, 61.500 33.065 M 71.500 70.078 C 64.270 71.123, 59.471 73.483, 53.750 78.807 C 46.353 85.690, 44.020 91.371, 44.020 102.500 C 44.020 109.894, 44.446 112.417, 46.413 116.640 C 51.921 128.470, 62.555 135.341, 75.500 135.434 C 92.154 135.553, 104.972 125.199, 108.917 108.443 C 110.346 102.371, 108.399 91, 104.985 85.476 C 98.048 74.252, 84.794 68.157, 71.500 70.078 M 1 142 C 1 147.607, 1.395 151, 2.048 151 C 2.624 151, 4.199 149.809, 5.548 148.354 C 8.675 144.980, 8.843 139.341, 5.927 135.635 C 2.051 130.706, 1 132.064, 1 142" stroke="none" fill="#13d7f6" fill-rule="evenodd"/></svg>